PathFileType	4	(X/Y/Z)	AB13\squats_1.trc
DataRate	CameraRate	NumFrames	NumMarkers	Units	OrigDataRate	OrigDataStartFrame	OrigNumFrames
200.000000	200.000000	4	35	mm	200.000000	158	316
Frame#	Time	C7			LSHO			STRN			LASI			RASI			LPSI			RPSI			LGTR			RGTR			LTHC			LTHL			LTHR			LKNE			LMKNE			LSHC			LSHL			LSHR			LANK			LMANK			LMT1			LMT5			LCAL			RTHC			RTHL			RTHR			RKNE			RSHC			RSHL			RSHR			RANK			RMANK			RMT1			RMT5			RCAL			RMKNE			
		X1	Y1	Z1	X2	Y2	Z2	X3	Y3	Z3	X4	Y4	Z4	X5	Y5	Z5	X6	Y6	Z6	X7	Y7	Z7	X8	Y8	Z8	X9	Y9	Z9	X10	Y10	Z10	X11	Y11	Z11	X12	Y12	Z12	X13	Y13	Z13	X14	Y14	Z14	X15	Y15	Z15	X16	Y16	Z16	X17	Y17	Z17	X18	Y18	Z18	X19	Y19	Z19	X20	Y20	Z20	X21	Y21	Z21	X22	Y22	Z22	X23	Y23	Z23	X24	Y24	Z24	X25	Y25	Z25	X26	Y26	Z26	X27	Y27	Z27	X28	Y28	Z28	X29	Y29	Z29	X30	Y30	Z30	X31	Y31	Z31	X32	Y32	Z32	X33	Y33	Z33	X34	Y34	Z34	X35	Y35	Z35	

159	33.48	-3554.626799357412	983.3093296605812	2474.067514836822	-3623.49796053949	916.7563108586029	2615.016596775536	-3635.480342198736	820.7954260197315	2464.272588446428	-3465.544491720962	541.4700783230044	2590.563156654292	-3450.511056343161	542.3109563512743	2332.105253015556	-3248.412419270227	627.0332150323344	2515.666245716157	-3255.005175828602	638.4588706241333	2441.193110806329	-3356.682925471604	565.045567584582	2669.22956897265	-3341.899585500444	547.8582403951527	2257.952690770973	-3467.915121508281	479.3525474774381	2686.766234252525	-3531.247312701323	342.1966560954707	2612.993716074124	-3525.179979507453	527.6510687272194	2607.315703903073	-3674.15043275299	392.4487610324507	2701.166113167779	-3690.371486286389	377.5854695675565	2582.334110826958	-3514.440486606036	214.0627819632547	2698.136319633446	-3594.216792169258	201.5506621725723	2662.714354108511	-3464.450049106919	208.7518860316508	2622.030779629116	-3425.055523646396	103.4600889543943	2675.832923438489	-3467.604385283002	96.83434450083682	2597.040459134862	-3565.589575822501	52.41321092736165	2653.782795015626	-3516.218645198056	52.68052081523904	2728.958986766593	-3366.960565385574	81.80760211191894	2623.311194008489	-3526.311707101151	341.3933065216253	2296.648472052206	-3440.316610572623	479.0522796976506	2237.715412603941	-3529.266665072015	527.2298175564968	2324.322592224632	-3649.042358054085	391.3488712396328	2216.612736529299	-3449.4483285895	192.6965570678459	2322.872485409837	-3502.548828977201	212.7355526954588	2242.863120474104	-3588.304866357552	212.0597805174322	2260.603000399567	-3421.277244482164	104.2308465904892	2272.130623924349	-3466.880802433471	95.61327474072428	2346.628126095353	-3560.788521978807	51.29994700544537	2282.68143526311	-3485.573207836421	46.97662044060536	2213.219392056737	-3357.252098622032	75.44912733347125	2325.723655462969	-3680.056797288399	384.1124243846292	2338.642041011355	
160	33.485	-3554.128288358265	983.9083107326303	2474.042499171385	-3622.723835569076	917.3520246330006	2615.079523022227	-3635.077319944793	821.4350463489087	2464.319543122568	-3465.519114703888	541.8038605573107	2590.262064326739	-3450.305123615912	542.6067927101312	2331.790537275855	-3248.3189060342	627.4408175455744	2515.520111678755	-3254.848843865302	638.8107207774669	2441.03409691057	-3356.773075436889	565.4722378927795	2669.033031127984	-3341.636719600914	548.1989062521865	2257.730813482882	-3467.946052175342	479.6250342757745	2686.514400064383	-3531.094319312638	342.3239413296542	2612.8331804595	-3525.205296505414	527.8469835677124	2607.0134460478	-3674.071316328014	392.5374849229946	2700.850823838774	-3690.288406454049	377.6038930898175	2582.038951778374	-3514.399808804778	214.0810884990475	2698.002066411608	-3594.186647867021	201.5957355758404	2662.562812701972	-3464.416949594801	208.7192638834329	2621.896598556387	-3425.03359848218	103.4469630988432	2675.78398025904	-3467.604243263754	96.80051698240398	2596.996072964144	-3565.578698429114	52.42121088582706	2653.777220177177	-3516.201065405198	52.68660991364055	2728.955790311536	-3366.954927353207	81.78635471227632	2623.298594966661	-3526.088366717455	341.6017806857497	2296.376462793483	-3440.089740467792	479.2666639371826	2237.454363881001	-3529.094456860438	527.473693601833	2323.989299553783	-3648.780383088583	391.4625682279376	2216.343833416767	-3449.344864057961	192.7296023211928	2322.708769932068	-3502.440726717748	212.7245515960375	2242.695238893308	-3588.196560198052	212.1333988670279	2260.42871892014	-3421.260096903129	104.2092109377925	2272.036111387058	-3466.844597791878	95.67415163736034	2346.562954235403	-3560.769087676916	51.32074741778801	2282.650203711132	-3485.563497440917	46.96024795863113	2213.18726159902	-3357.242575670308	75.44945464236589	2325.686890184054	-3679.850592067544	384.3150508087897	2338.313153351123	
161	33.49	-3553.601969527256	984.6224219479824	2474.007073565676	-3621.917619617895	918.0769071641138	2615.132194314049	-3634.664921500389	822.2073213988585	2464.353710025593	-3465.513741197019	542.2061854982389	2589.960952999387	-3450.106616696299	542.978137655299	2331.468804290295	-3248.247551025502	627.9519968842898	2515.388193872867	-3254.709697322087	639.2631691647238	2440.888464671211	-3356.895442344673	565.9813153126099	2668.845357794805	-3341.373264644497	548.6341313786738	2257.511521799998	-3468.002687187957	479.9558083409082	2686.256025683258	-3530.937272297881	342.4979320674829	2612.66005347906	-3525.258395253566	528.0898271724908	2606.703306615935	-3673.996901026399	392.6376631443218	2700.516015621632	-3690.199563794715	377.6250862921364	2581.725794349043	-3514.365631113215	214.1086869450791	2697.859608995518	-3594.158856700125	201.6466944330338	2662.403481226025	-3464.386759249595	208.6919448988044	2621.759909845018	-3425.018211486543	103.4359430468981	2675.741158806754	-3467.608172622244	96.77090319165873	2596.954276817747	-3565.569990664469	52.42865960543406	2653.770657829103	-3516.188173289132	52.68729758966381	2728.949132072659	-3366.949891211276	81.77034530521534	2623.288796756089	-3525.839929987334	341.863186263944	2296.095027022703	-3439.858222940034	479.5483977942795	2237.19386394274	-3528.934746722132	527.7701255788458	2323.647331968635	-3648.498860358373	391.6007492917988	2216.063615220643	-3449.233688036687	192.7669917198594	2322.532623184175	-3502.324420608882	212.7213751204245	2242.514099756594	-3588.079428501046	212.2204623652133	2260.241524852487	-3421.239545044562	104.187632509969	2271.932586321915	-3466.802616016053	95.74365480747296	2346.489121689193	-3560.748649764571	51.34441141762475	2282.615405426745	-3485.553597901768	46.94155195218526	2213.150163865111	-3357.230494712473	75.45057020356495	2325.643197938787	-3679.627976589106	384.5373774059336	2337.967051914895	
162	33.495	-3553.048838372239	985.4496244872734	2473.961725017375	-3621.083000975929	918.928490467027	2615.173783364982	-3634.244059840189	823.1104257427095	2464.374194309406	-3465.526617973389	542.6769299167494	2589.659942136865	-3449.915139895583	543.4248719856255	2331.14145996167	-3248.197435489938	628.5659312018089	2515.269908075201	-3254.587357887997	639.815841977796	2440.755705304506	-3357.047437984896	566.571103960101	2668.666317917169	-3341.109261945533	549.1623897798911	2257.295067974885	-3468.083784066107	480.3435947688087	2685.989383507069	-3530.775065510954	342.7183128923302	2612.470623523223	-3525.337599880113	528.3794806056505	2606.384222019669	-3673.926900048884	392.7492010692819	2700.158155230573	-3690.103087046283	377.6494314698664	2581.390531834675	-3514.337783492767	214.1457047442291	2697.706819220388	-3594.132833545986	201.703026706746	2662.233853002827	-3464.35882907087	208.6692596945	2621.619020226068	-3425.00911977642	103.4266070261021	2675.703230085217	-3467.615611556566	96.74410312010643	2596.914299071877	-3565.563301113672	52.43536830074201	2653.76251890711	-3516.180034916964	52.68332817416038	2728.938245827177	-3366.945352525421	81.75888533680353	2623.280991299841	-3525.566492997562	342.1770156037747	2295.808811199774	-3439.622644471895	479.8966588480826	2236.93568929418	-3528.786958928806	528.1188489651096	2323.299313707347	-3648.198905043284	391.7630859635443	2215.777102031332	-3449.114841513535	192.807880096114	2322.346348970395	-3502.200264381599	212.725951638478	2242.322384262257	-3587.953738447773	212.3205344958583	2260.045124774721	-3421.215232656536	104.1659988876438	2271.821732974845	-3466.75455258801	95.82063577947979	2346.407654876762	-3560.727206549405	51.3707848065462	2282.577599656537	-3485.543535869211	46.92091158072425	2213.108602398606	-3357.215558188997	75.45156611839333	2325.592924025357	-3679.388604620885	384.7787241242379	2337.609428753433	
